<?xml version="1.0" encoding="iso-8859-1"?>
<!-- Generator: Adobe Illustrator 19.0.0, SVG Export Plug-In . SVG Version: 6.00 Build 0)  -->
<svg version="1.1" id="Layer_1" xmlns="http://www.w3.org/2000/svg" xmlns:xlink="http://www.w3.org/1999/xlink" x="0px" y="0px"
	 viewBox="0 0 512 512" style="enable-background:new 0 0 512 512;" xml:space="preserve">
<g transform="translate(1 1)">
	<g>
		<path style="fill:#FFE100;" d="M88.825,511c-2.695,0-4.491-0.898-6.288-2.695c-3.593-3.593-3.593-8.982,0-12.575l25.151-25.151
			l26.049-141.025c0.898-2.695,1.796-4.491,3.593-6.288l98.807-62.877c4.491-2.695,9.881-1.797,12.575,2.695
			c2.695,4.491,1.796,9.881-2.695,12.575l-95.214,61.081l-26.049,140.126c0,1.797-0.898,3.593-2.695,4.491l-26.947,26.947
			C93.316,510.102,91.519,511,88.825,511z"/>
		<path style="fill:#FFE100;" d="M106.789,268.474H70.86c-5.389,0-8.982-3.593-8.982-8.982c0-5.389,3.593-8.982,8.982-8.982h33.235
			l43.116-26.049c0.898-0.898,2.695-0.898,4.491-0.898h62.877c5.389,0,8.982,3.593,8.982,8.982c0,5.389-3.593,8.982-8.982,8.982
			h-60.182l-43.116,26.049C110.382,268.474,108.586,268.474,106.789,268.474z"/>
		<path style="fill:#FFE100;" d="M214.579,205.596c-0.898,0-0.898,0-1.796,0l-44.912-8.982c-2.695-0.898-4.491-1.797-5.389-3.593
			l-35.93-53.895c-0.898-1.797-1.796-3.593-1.796-5.389V64.572l-16.168-24.253c-2.695-4.491-1.796-9.881,1.797-12.575
			c4.491-2.695,9.881-1.796,12.575,1.796l17.965,26.947c0.898,1.796,1.796,3.593,1.796,5.389v69.165l32.337,48.505l41.319,8.084
			c4.491,0.898,8.084,5.389,7.186,10.779C222.663,202.902,219.07,205.596,214.579,205.596z"/>
		<path style="fill:#FFE100;" d="M232.544,79.842c-19.761,0-35.93-16.168-35.93-35.93s16.168-35.93,35.93-35.93
			c5.389,0,8.982,3.593,8.982,8.982s-3.593,8.982-8.982,8.982c-9.881,0-17.965,8.084-17.965,17.965s8.084,17.965,17.965,17.965
			c5.389,0,8.982,3.593,8.982,8.982S237.933,79.842,232.544,79.842z"/>
		<path style="fill:#FFE100;" d="M286.439,79.842c-5.389,0-8.982-3.593-8.982-8.982s3.593-8.982,8.982-8.982
			c9.881,0,17.965-8.084,17.965-17.965s-8.084-17.965-17.965-17.965c-5.389,0-8.982-3.593-8.982-8.982s3.593-8.982,8.982-8.982
			c19.761,0,35.93,16.168,35.93,35.93S306.2,79.842,286.439,79.842z"/>
		<path style="fill:#FFE100;" d="M430.158,511c-2.695,0-4.491-0.898-6.288-2.695l-26.947-26.947
			c-0.898-0.898-1.796-2.695-2.695-4.491L368.179,336.74l-95.214-61.081c-4.491-2.695-5.389-8.084-2.695-12.575
			c2.695-4.491,8.084-5.389,12.575-2.695l98.807,62.877c1.797,0.898,3.593,3.593,3.593,6.288l26.049,141.025l25.151,25.151
			c3.593,3.593,3.593,8.982,0,12.575C434.649,510.102,432.853,511,430.158,511z"/>
		<path style="fill:#FFE100;" d="M448.123,268.474h-35.93c-1.797,0-3.593,0-4.491-0.898l-43.116-26.049h-60.182
			c-5.389,0-8.982-3.593-8.982-8.982c0-5.389,3.593-8.982,8.982-8.982h62.877c1.797,0,3.593,0,4.491,0.898l43.116,26.049h33.235
			c5.389,0,8.982,3.593,8.982,8.982C457.105,264.881,453.512,268.474,448.123,268.474z"/>
		<path style="fill:#FFE100;" d="M304.404,205.596c-4.491,0-8.084-2.695-8.982-7.186s1.797-9.881,7.186-10.779l41.319-8.084
			l32.337-48.505V61.877c0-1.796,0.898-3.593,1.797-5.389l17.965-26.947c2.695-4.491,8.084-5.389,12.575-2.695
			c4.491,2.695,5.389,8.084,2.695,12.575l-17.067,25.151v69.165c0,1.796-0.898,3.593-1.797,5.389l-35.93,53.895
			c-0.898,1.796-3.593,3.593-5.389,3.593l-44.912,8.982C305.302,205.596,305.302,205.596,304.404,205.596z"/>
		<path style="fill:#FFE100;" d="M260.389,169.667h-19.761c-24.253,0-44.014-19.761-44.014-44.014v-19.761
			c0-24.253,19.761-44.014,44.014-44.014h19.761c24.253,0,44.014,19.761,44.014,44.014v19.761
			C304.404,149.905,284.642,169.667,260.389,169.667"/>
	</g>
	<path style="fill:#FFA800;" d="M260.389,61.877h-17.965c24.253,0,44.014,19.761,44.014,44.014v19.761
		c0,24.253-19.761,44.014-44.014,44.014h17.965c24.253,0,44.014-19.761,44.014-44.014v-19.761
		C304.404,81.639,284.642,61.877,260.389,61.877"/>
	<path style="fill:#FFE100;" d="M295.421,205.596c0,19.761-19.761,35.93-44.912,35.93s-44.912-16.168-44.912-35.93
		s19.761-35.93,44.912-35.93S295.421,185.835,295.421,205.596"/>
	<path style="fill:#FFA800;" d="M250.509,169.667c-2.695,0-6.288,0-8.982,0.898c20.66,3.593,35.93,17.965,35.93,35.032
		s-15.27,31.439-35.93,35.032c2.695,0.898,6.288,0.898,8.982,0.898c25.151,0,44.912-16.168,44.912-35.93
		S275.66,169.667,250.509,169.667"/>
	<g>
		<polygon style="fill:#FFE100;" points="232.544,304.404 268.474,304.404 268.474,241.526 232.544,241.526 		"/>
		<path style="fill:#FFE100;" d="M250.509,466.088L250.509,466.088c-35.032,0-62.877-27.846-62.877-62.877v-35.93
			c0-35.032,27.846-62.877,62.877-62.877s62.877,27.846,62.877,62.877v35.93C313.386,438.242,285.54,466.088,250.509,466.088"/>
	</g>
	<path style="fill:#FFA800;" d="M250.509,304.404c-2.695,0-6.288,0-8.982,0.898c30.54,4.491,53.895,30.54,53.895,61.979v35.93
		c0,31.439-23.354,57.488-53.895,61.979c2.695,0,6.288,0.898,8.982,0.898c35.032,0,62.877-27.846,62.877-62.877v-35.93
		C313.386,332.249,285.54,304.404,250.509,304.404"/>
	<path d="M260.389,178.649h-19.761c-29.642,0-52.996-24.253-52.996-52.996v-19.761c0-28.744,24.253-52.996,52.996-52.996h19.761
		c29.642,0,52.996,24.253,52.996,52.996v19.761C313.386,154.396,289.133,178.649,260.389,178.649z M240.628,70.86
		c-18.863,0-35.032,16.168-35.032,35.032v19.761c0,19.761,16.168,35.032,35.032,35.032h19.761c19.761,0,35.032-16.168,35.032-35.032
		v-19.761c0-18.863-16.168-35.032-35.032-35.032H240.628z"/>
	<path d="M250.509,250.509c-29.642,0-53.895-19.761-53.895-44.912s24.253-44.912,53.895-44.912s53.895,19.761,53.895,44.912
		S280.151,250.509,250.509,250.509z M250.509,178.649c-19.761,0-35.93,11.677-35.93,26.947s16.168,26.947,35.93,26.947
		s35.93-11.677,35.93-26.947S270.27,178.649,250.509,178.649z"/>
	<path d="M277.456,313.386h-53.895v-80.842h53.895V313.386z M241.526,295.421h17.965v-44.912h-17.965V295.421z"/>
	<path d="M250.509,475.07c-39.523,0-71.86-32.337-71.86-71.86v-35.93c0-39.523,32.337-71.86,71.86-71.86s71.86,32.337,71.86,71.86
		v35.93C322.368,442.733,290.032,475.07,250.509,475.07z M250.509,313.386c-29.642,0-53.895,24.253-53.895,53.895v35.93
		c0,29.642,24.253,53.895,53.895,53.895s53.895-24.253,53.895-53.895v-35.93C304.404,337.639,280.151,313.386,250.509,313.386z"/>
	<path d="M79.842,502.018c-2.695,0-4.491-0.898-6.288-2.695c-3.593-3.593-3.593-8.982,0-12.575l25.151-25.151l26.049-141.025
		c0.898-2.695,1.796-4.491,3.593-6.288l98.807-62.877c4.491-2.695,9.881-1.797,12.575,2.695c2.695,4.491,1.797,9.881-2.695,12.575
		l-95.214,61.081l-26.049,140.126c0,1.797-0.898,3.593-2.695,4.491L86.13,499.323C84.333,501.119,82.537,502.018,79.842,502.018z"/>
	<path d="M97.807,259.491h-35.93c-5.389,0-8.982-3.593-8.982-8.982s3.593-8.982,8.982-8.982h33.235l43.116-26.049
		c0.898-0.898,2.695-0.898,4.491-0.898h62.877c5.389,0,8.982,3.593,8.982,8.982s-3.593,8.982-8.982,8.982h-60.182l-43.116,26.049
		C101.4,259.491,99.604,259.491,97.807,259.491z"/>
	<path d="M205.596,196.614c-0.898,0-0.898,0-1.796,0l-44.912-8.982c-2.695-0.898-4.491-1.796-5.389-3.593l-35.93-53.895
		c-0.898-1.796-1.796-3.593-1.796-5.389V55.589L99.604,31.337c-2.695-4.491-1.796-9.881,1.796-12.575
		c4.491-2.695,9.881-1.796,12.575,1.796l17.965,26.947c0.898,1.796,1.796,3.593,1.796,5.389v69.165l32.337,48.505l41.319,8.084
		c4.491,0.898,8.084,5.389,7.186,10.779C213.681,193.919,210.088,196.614,205.596,196.614z"/>
	<path d="M223.561,70.86c-19.761,0-35.93-16.168-35.93-35.93S203.8-1,223.561-1c5.389,0,8.982,3.593,8.982,8.982
		s-3.593,8.982-8.982,8.982c-9.881,0-17.965,8.084-17.965,17.965s8.084,17.965,17.965,17.965c5.389,0,8.982,3.593,8.982,8.982
		S228.951,70.86,223.561,70.86z"/>
	<path d="M277.456,70.86c-5.389,0-8.982-3.593-8.982-8.982s3.593-8.982,8.982-8.982c9.881,0,17.965-8.084,17.965-17.965
		s-8.084-17.965-17.965-17.965c-5.389,0-8.982-3.593-8.982-8.982S272.067-1,277.456-1c19.761,0,35.93,16.168,35.93,35.93
		S297.218,70.86,277.456,70.86z"/>
	<path d="M421.175,502.018c-2.695,0-4.491-0.898-6.288-2.695l-26.947-26.947c-0.898-0.898-1.796-2.695-2.695-4.491l-26.049-140.126
		l-95.214-61.081c-4.491-2.695-5.389-8.084-2.695-12.575c2.695-4.491,8.084-5.389,12.575-2.695l98.807,62.877
		c1.797,0.898,3.593,3.593,3.593,6.288l26.049,141.025l25.151,25.151c3.593,3.593,3.593,8.982,0,12.575
		C425.667,501.119,423.87,502.018,421.175,502.018z"/>
	<path d="M439.14,259.491h-35.93c-1.797,0-3.593,0-4.491-0.898l-43.116-26.049h-60.182c-5.389,0-8.982-3.593-8.982-8.982
		s3.593-8.982,8.982-8.982h62.877c1.797,0,3.593,0,4.491,0.898l43.116,26.049h33.235c5.389,0,8.982,3.593,8.982,8.982
		S444.53,259.491,439.14,259.491z"/>
	<path d="M295.421,196.614c-4.491,0-8.084-2.695-8.982-7.186c-0.898-4.491,1.797-9.881,7.186-10.779l41.319-8.084l32.337-48.505
		V52.895c0-1.796,0.898-3.593,1.797-5.389l17.965-26.947c2.695-4.491,8.084-5.389,12.575-2.695
		c4.491,2.695,5.389,8.084,2.695,12.575l-17.067,25.151v69.165c0,1.796-0.898,3.593-1.796,5.389l-35.93,53.895
		c-0.898,1.796-3.593,3.593-5.389,3.593l-44.912,8.982C296.319,196.614,296.319,196.614,295.421,196.614z"/>
</g>
<g>
</g>
<g>
</g>
<g>
</g>
<g>
</g>
<g>
</g>
<g>
</g>
<g>
</g>
<g>
</g>
<g>
</g>
<g>
</g>
<g>
</g>
<g>
</g>
<g>
</g>
<g>
</g>
<g>
</g>
</svg>
